<?xml version="1.0" encoding="UTF-8" standalone="no"?><!DOCTYPE svg PUBLIC "-//W3C//DTD SVG 1.1//EN" "http://www.w3.org/Graphics/SVG/1.1/DTD/svg11.dtd"><svg width="100%" height="100%" viewBox="0 0 20 20" version="1.1" xmlns="http://www.w3.org/2000/svg" xmlns:xlink="http://www.w3.org/1999/xlink" xml:space="preserve" xmlns:serif="http://www.serif.com/" style="fill-rule:evenodd;clip-rule:evenodd;stroke-linejoin:round;stroke-miterlimit:2;"><rect id="Artboard10" x="0" y="0" width="20" height="20" style="fill:none;"/><path d="M11.175,4.663c0.055,-0.313 0.065,-0.596 -0.056,-0.643c-0.577,-0.227 -1.083,-0.513 -1.785,-1.296c-1.097,-1.223 -0.834,-2.682 -0.834,-2.682c0,0 0.359,0.331 0.942,0.458c0.595,0.13 2.522,0.398 2.921,1.958c0.042,0.161 0.076,0.526 0.103,0.925c0.342,-0.423 0.666,-0.778 0.867,-0.893c3.106,-1.769 3.684,-0.514 4.513,-0.177c0.814,0.331 1.95,0.355 1.95,0.355c-0,-0 -0.838,1.755 -3.217,2.352c-1.524,0.382 -2.483,0.146 -3.374,-0.056c-0.19,-0.042 -0.314,0.16 -0.395,0.409c0.947,0.173 1.107,-0.271 3.572,0.585c2.873,0.998 2.68,5.191 1.622,8.279c-1.487,4.342 -6.814,6.052 -8.552,5.448c-1.311,-0.455 -1.132,-1.094 -2.442,-1.549c-0.252,-0.088 -1.4,0.215 -2.871,-0.296c-2.798,-0.971 -3.491,-7.161 -2.521,-9.994c1.524,-4.45 4.453,-5.469 6.795,-4.655c1.545,0.536 2.172,1.059 2.762,1.472Z" style="fill:#bd4858;"/></svg>